<svg width="22" height="22" viewBox="0 0 22 22" fill="none" xmlns="http://www.w3.org/2000/svg">
<path fill-rule="evenodd" clip-rule="evenodd" d="M10.9998 2.04163C11.3565 2.04163 11.6457 2.33078 11.6457 2.68746V19.4791C11.6457 19.8358 11.3565 20.125 10.9998 20.125C10.6432 20.125 10.354 19.8358 10.354 19.4791V2.68746C10.354 2.33078 10.6432 2.04163 10.9998 2.04163Z" fill="#FAFAFA"/>
<path fill-rule="evenodd" clip-rule="evenodd" d="M6.64513 5.11409C7.37184 4.38738 8.35746 3.97913 9.38517 3.97913H12.2914C12.8003 3.97913 13.3042 4.07936 13.7743 4.27409C14.2445 4.46883 14.6716 4.75426 15.0315 5.11409C15.3913 5.47391 15.6767 5.90109 15.8715 6.37123C16.0662 6.84136 16.1664 7.34525 16.1664 7.85413C16.1664 8.21081 15.8773 8.49996 15.5206 8.49996C15.1639 8.49996 14.8748 8.21081 14.8748 7.85413C14.8748 7.51488 14.8079 7.17895 14.6781 6.86553C14.5483 6.5521 14.358 6.26732 14.1181 6.02743C13.8782 5.78755 13.5934 5.59726 13.28 5.46744C12.9666 5.33761 12.6307 5.27079 12.2914 5.27079H9.38517C8.70003 5.27079 8.04295 5.54296 7.55848 6.02743C7.07401 6.5119 6.80184 7.16898 6.80184 7.85413C6.80184 8.53927 7.07401 9.19635 7.55848 9.68082C8.04295 10.1653 8.70003 10.4375 9.38517 10.4375H12.9373C13.965 10.4375 14.9506 10.8457 15.6773 11.5724C16.404 12.2991 16.8123 13.2847 16.8123 14.3125C16.8123 15.3402 16.404 16.3258 15.6773 17.0525C14.9506 17.7792 13.965 18.1875 12.9373 18.1875H9.06226C8.03454 18.1875 7.04892 17.7792 6.32222 17.0525C5.59551 16.3258 5.18726 15.3402 5.18726 14.3125C5.18726 13.9558 5.47641 13.6666 5.83309 13.6666C6.18977 13.6666 6.47892 13.9558 6.47892 14.3125C6.47892 14.9976 6.75109 15.6547 7.23556 16.1392C7.72003 16.6236 8.37711 16.8958 9.06226 16.8958H12.9373C13.6224 16.8958 14.2795 16.6236 14.7639 16.1392C15.2484 15.6547 15.5206 14.9976 15.5206 14.3125C15.5206 13.6273 15.2484 12.9702 14.7639 12.4858C14.2795 12.0013 13.6224 11.7291 12.9373 11.7291H9.38517C8.35746 11.7291 7.37184 11.3209 6.64513 10.5942C5.91843 9.86746 5.51017 8.88184 5.51017 7.85413C5.51017 6.82641 5.91843 5.84079 6.64513 5.11409Z" fill="#FAFAFA"/>
</svg>
