<svg width="22" height="22" viewBox="0 0 22 22" fill="none" xmlns="http://www.w3.org/2000/svg">
<path d="M10.9999 1.875C9.11643 1.87714 7.3107 2.6263 5.97887 3.95812C4.64705 5.28995 3.89789 7.09568 3.89575 8.97917C3.89575 15.0581 10.3541 19.6516 10.6286 19.8453C10.7386 19.9186 10.8678 19.9576 10.9999 19.9576C11.1321 19.9576 11.2613 19.9186 11.3713 19.8453C11.6458 19.6516 18.1041 15.0581 18.1041 8.97917C18.1019 7.09568 17.3528 5.28995 16.021 3.95812C14.6891 2.6263 12.8834 1.87714 10.9999 1.875ZM10.9999 6.39583C11.5109 6.39583 12.0103 6.54734 12.4351 6.8312C12.86 7.11506 13.1911 7.51853 13.3866 7.99057C13.5821 8.46261 13.6333 8.98203 13.5336 9.48315C13.4339 9.98427 13.1879 10.4446 12.8266 10.8059C12.4653 11.1671 12.005 11.4132 11.5039 11.5129C11.0028 11.6125 10.4834 11.5614 10.0113 11.3659C9.53928 11.1703 9.13582 10.8392 8.85196 10.4144C8.5681 9.98956 8.41658 9.4901 8.41658 8.97917C8.41658 8.29402 8.68876 7.63694 9.17323 7.15247C9.65769 6.668 10.3148 6.39583 10.9999 6.39583Z" fill="#FAFAFA"/>
</svg>
