<svg width="29" height="29" viewBox="0 0 29 29" fill="none" xmlns="http://www.w3.org/2000/svg">
<path d="M27.9416 5.86988C27.88 5.61389 27.7682 5.37268 27.6126 5.16025C27.457 4.94782 27.2608 4.76839 27.0354 4.63238C23.1031 2.25363 18.5949 0.996155 13.9991 0.996155C9.40333 0.996155 4.89515 2.25363 0.962871 4.63238C0.738065 4.76872 0.542348 4.94805 0.386916 5.16011C0.231485 5.37216 0.119389 5.61278 0.0570436 5.8682C-0.00530208 6.12362 -0.0166745 6.38883 0.0235768 6.64865C0.063828 6.90847 0.154913 7.1578 0.291621 7.38238L12.2916 27.0411C12.4699 27.335 12.7209 27.578 13.0204 27.7467C13.32 27.9153 13.6579 28.0039 14.0016 28.0039C14.3454 28.0039 14.6833 27.9153 14.9828 27.7467C15.2823 27.578 15.5333 27.335 15.7116 27.0411L27.7116 7.38238C27.8485 7.15819 27.9393 6.90897 27.9788 6.64928C28.0183 6.38959 28.0057 6.12463 27.9416 5.86988ZM5.94787 12.8074C6.27279 12.5012 6.66197 12.2713 7.08701 12.1347C7.51205 11.998 7.96224 11.9579 8.40474 12.0173C8.84724 12.0768 9.2709 12.2342 9.64481 12.4782C10.0187 12.7222 10.3335 13.0466 10.5661 13.4277C10.7987 13.8088 10.9433 14.237 10.9894 14.6811C11.0354 15.1251 10.9818 15.5739 10.8324 15.9947C10.683 16.4154 10.4415 16.7975 10.1257 17.113C9.80981 17.4286 9.4275 17.6696 9.00662 17.8186L5.94787 12.8074ZM16.9379 21.1761C16.4371 20.7039 16.1139 20.0739 16.0226 19.3917C15.9312 18.7095 16.0772 18.0166 16.4361 17.4293C16.7949 16.8419 17.3449 16.3959 17.9936 16.1659C18.6423 15.9359 19.3504 15.936 19.9991 16.1661L16.9379 21.1761ZM21.0541 14.4349C19.9426 13.9304 18.685 13.8499 17.5182 14.2086C16.3515 14.5673 15.3563 15.3404 14.7202 16.3822C14.0841 17.424 13.851 18.6625 14.065 19.8642C14.2789 21.0659 14.9251 22.1479 15.8816 22.9061L13.9991 25.9949L10.0616 19.5486C10.7081 19.2573 11.2852 18.8319 11.7546 18.3005C12.2241 17.7691 12.5751 17.1439 12.7845 16.4665C12.9939 15.7891 13.0567 15.0749 12.969 14.3713C12.8812 13.6677 12.6448 12.9908 12.2755 12.3855C11.9061 11.7803 11.4123 11.2605 10.8267 10.8607C10.2411 10.4609 9.5772 10.1902 8.87901 10.0666C8.18082 9.94304 7.46432 9.96936 6.77707 10.1438C6.08983 10.3183 5.44755 10.637 4.89287 11.0786L4.09912 9.77738C7.08041 7.95755 10.5057 6.99473 13.9985 6.99473C17.4913 6.99473 20.9166 7.95755 23.8979 9.77738L21.0541 14.4349ZM24.9416 8.06863C21.6457 6.05843 17.8597 4.99498 13.9991 4.99498C10.1385 4.99498 6.35256 6.05843 3.05662 8.06863L1.99912 6.34113C5.61941 4.15315 9.76901 2.99661 13.9991 2.99661C18.2292 2.99661 22.3788 4.15315 25.9991 6.34113L24.9416 8.06863Z" fill="#00875F"/>
</svg>
