<svg width="205" height="205" viewBox="0 0 205 205" fill="none" xmlns="http://www.w3.org/2000/svg">
<path d="M199.485 111.53C199.457 99.2286 197.404 87.141 194.056 75.9435C184.055 42.5026 160.958 13.2914 130.92 14.7637C111.659 15.7075 92.405 18.9358 73.1437 21.4942C56.7027 23.6779 40.3572 25.6783 26.5742 40.3801C20.6091 46.7429 15.6182 54.7297 12.291 63.6779C3.04021 88.5559 6.86838 117.925 17.8502 139.37C28.8325 160.816 46.0025 175.45 63.8826 186.974C71.1732 191.673 79.413 196.027 87.704 193.096C92.8097 191.291 97.2713 186.912 102.182 184.186C118.705 175.014 136.486 185.804 153.971 183.479C164.358 182.099 174.63 175.854 182.438 166.175C191.764 154.615 197.347 138.569 198.955 122.527C199.323 118.854 199.493 115.183 199.485 111.53Z" fill="#92E3A9"/>
<path opacity="0.7" d="M199.485 111.53C199.457 99.2286 197.404 87.141 194.056 75.9435C184.055 42.5026 160.958 13.2914 130.92 14.7637C111.659 15.7075 92.405 18.9358 73.1437 21.4942C56.7027 23.6779 40.3572 25.6783 26.5742 40.3801C20.6091 46.7429 15.6182 54.7297 12.291 63.6779C3.04021 88.5559 6.86838 117.925 17.8502 139.37C28.8325 160.816 46.0025 175.45 63.8826 186.974C71.1732 191.673 79.413 196.027 87.704 193.096C92.8097 191.291 97.2713 186.912 102.182 184.186C118.705 175.014 136.486 185.804 153.971 183.479C164.358 182.099 174.63 175.854 182.438 166.175C191.764 154.615 197.347 138.569 198.955 122.527C199.323 118.854 199.493 115.183 199.485 111.53Z" fill="white"/>
<path d="M3.70728 134.352L77.3982 191.03L151.681 141.852L202.923 129.815V125.689L143.083 113.996L3.70728 134.352Z" fill="#263238" stroke="#263238" stroke-miterlimit="10" stroke-linecap="round" stroke-linejoin="round"/>
<path d="M129.105 13.7773L127.065 13.4062C127.065 13.4062 120.943 8.76869 119.459 9.69611C117.975 10.6235 79.2058 66.6443 79.2058 70.9112C79.2058 75.178 80.1332 83.1542 80.1332 83.1542L148.583 120.811L201.079 40.3038" fill="#92E3A9"/>
<path d="M129.105 13.7773L127.065 13.4062C127.065 13.4062 120.943 8.76869 119.459 9.69611C117.975 10.6235 79.2058 66.6443 79.2058 70.9112C79.2058 75.178 80.1332 83.1542 80.1332 83.1542L148.583 120.811L201.079 40.3038" stroke="#263238" stroke-miterlimit="10" stroke-linecap="round" stroke-linejoin="round"/>
<path opacity="0.33" d="M127.485 14.1113C127.485 14.1113 121.343 10.1306 120.319 10.3582C119.296 10.5857 79.9435 69.7278 79.9435 71.2067C79.9435 72.6851 80.8533 82.5801 80.8533 82.5801L127.485 14.1113Z" fill="black"/>
<path d="M147.655 139.731L77.9073 98.3647L4.63501 132.126L75.681 186.477L147.655 139.731Z" fill="#92E3A9" stroke="#263238" stroke-miterlimit="10" stroke-linecap="round" stroke-linejoin="round"/>
<path d="M75.016 100.378L141.351 141.3" stroke="#263238" stroke-miterlimit="10" stroke-linecap="round" stroke-linejoin="round"/>
<path d="M72.0312 101.885L138.366 142.807" stroke="#263238" stroke-miterlimit="10" stroke-linecap="round" stroke-linejoin="round"/>
<path d="M69.0464 103.392L135.382 144.315" stroke="#263238" stroke-miterlimit="10" stroke-linecap="round" stroke-linejoin="round"/>
<path d="M66.0616 104.9L132.397 145.822" stroke="#263238" stroke-miterlimit="10" stroke-linecap="round" stroke-linejoin="round"/>
<path d="M63.0764 106.407L129.412 147.329" stroke="#263238" stroke-miterlimit="10" stroke-linecap="round" stroke-linejoin="round"/>
<path d="M60.0917 107.914L126.427 148.837" stroke="#263238" stroke-miterlimit="10" stroke-linecap="round" stroke-linejoin="round"/>
<path d="M57.1068 109.421L123.442 150.344" stroke="#263238" stroke-miterlimit="10" stroke-linecap="round" stroke-linejoin="round"/>
<path d="M54.1221 110.928L120.457 151.851" stroke="#263238" stroke-miterlimit="10" stroke-linecap="round" stroke-linejoin="round"/>
<path d="M51.1372 112.435L117.472 153.358" stroke="#263238" stroke-miterlimit="10" stroke-linecap="round" stroke-linejoin="round"/>
<path d="M48.1525 113.943L114.488 154.865" stroke="#263238" stroke-miterlimit="10" stroke-linecap="round" stroke-linejoin="round"/>
<path d="M45.1676 115.45L111.503 156.372" stroke="#263238" stroke-miterlimit="10" stroke-linecap="round" stroke-linejoin="round"/>
<path d="M42.1829 116.957L108.518 157.879" stroke="#263238" stroke-miterlimit="10" stroke-linecap="round" stroke-linejoin="round"/>
<path d="M39.198 118.465L105.533 159.387" stroke="#263238" stroke-miterlimit="10" stroke-linecap="round" stroke-linejoin="round"/>
<path d="M36.2133 119.972L102.548 160.894" stroke="#263238" stroke-miterlimit="10" stroke-linecap="round" stroke-linejoin="round"/>
<path d="M33.2284 121.479L99.5635 162.401" stroke="#263238" stroke-miterlimit="10" stroke-linecap="round" stroke-linejoin="round"/>
<path d="M30.2437 122.986L96.5788 163.909" stroke="#263238" stroke-miterlimit="10" stroke-linecap="round" stroke-linejoin="round"/>
<path d="M27.2584 124.493L93.594 165.416" stroke="#263238" stroke-miterlimit="10" stroke-linecap="round" stroke-linejoin="round"/>
<path d="M24.2736 126L90.6087 166.923" stroke="#263238" stroke-miterlimit="10" stroke-linecap="round" stroke-linejoin="round"/>
<path d="M21.2888 127.508L87.6239 168.43" stroke="#263238" stroke-miterlimit="10" stroke-linecap="round" stroke-linejoin="round"/>
<path d="M18.8973 128.132L83.7265 170.671" stroke="#263238" stroke-miterlimit="10" stroke-linecap="round" stroke-linejoin="round"/>
<path d="M15.3192 130.522L78.6695 172.952" stroke="#263238" stroke-miterlimit="10" stroke-linecap="round" stroke-linejoin="round"/>
<path d="M78.8348 82.7826C78.8348 82.7826 3.58464 119.526 2.84254 119.897C2.10044 120.268 3.33618 133.609 3.70723 134.352L77.907 98.3646C77.907 98.3646 147.229 140.661 147.229 139.919C147.229 139.176 148.953 121.366 148.582 120.81C148.212 120.254 78.8348 82.7826 78.8348 82.7826Z" fill="#92E3A9" stroke="#263238" stroke-miterlimit="10" stroke-linecap="round" stroke-linejoin="round"/>
<path opacity="0.33" d="M4.19189 120.476L79.0202 84.0815L77.93 97.4746L4.71792 132.963L4.19189 120.476Z" fill="black"/>
<path d="M79.0201 84.0815L78.2784 96.6952" stroke="#263238" stroke-miterlimit="10" stroke-linecap="round" stroke-linejoin="round"/>
<path d="M148.582 120.81C148.582 120.81 202.934 41.4165 201.079 40.3034C199.224 39.1902 195.143 41.0455 193.288 42.715C191.433 44.3845 151.365 102.261 151.365 104.115C151.365 105.97 148.582 120.81 148.582 120.81Z" fill="#92E3A9"/>
<path opacity="0.33" d="M148.582 120.81C148.582 120.81 202.934 41.4165 201.079 40.3034C199.224 39.1902 195.143 41.0455 193.288 42.715C191.433 44.3845 151.365 102.261 151.365 104.115C151.365 105.97 148.582 120.81 148.582 120.81Z" fill="black"/>
<path d="M148.582 120.81C148.582 120.81 202.934 41.4165 201.079 40.3034C199.224 39.1902 195.143 41.0455 193.288 42.715C191.433 44.3845 151.365 102.261 151.365 104.115C151.365 105.97 148.582 120.81 148.582 120.81Z" stroke="#263238" stroke-miterlimit="10" stroke-linecap="round" stroke-linejoin="round"/>
<path d="M201.079 40.3034C201.079 40.3034 129.105 15.4463 129.105 13.7768C129.105 12.1073 127.621 5.05813 129.105 4.31644C130.589 3.57434 131.887 3.57434 131.887 3.57434C131.887 3.57434 194.771 25.6487 197.183 28.4314C199.595 31.2141 199.966 33.2542 200.151 33.9963C200.337 34.7384 201.079 40.3034 201.079 40.3034Z" fill="#92E3A9" stroke="#263238" stroke-miterlimit="10" stroke-linecap="round" stroke-linejoin="round"/>
<path d="M123.012 20.9735L126.879 15.261" stroke="#263238" stroke-miterlimit="10" stroke-linecap="round" stroke-linejoin="round"/>
<path d="M86.2463 75.2826L121.26 23.5619" stroke="#263238" stroke-miterlimit="10" stroke-linecap="round" stroke-linejoin="round"/>
<path d="M82.1738 81.2989L85.1213 76.9447" stroke="#263238" stroke-miterlimit="10" stroke-linecap="round" stroke-linejoin="round"/>
<path d="M82.458 159.034C82.2386 156.4 80.7015 131.811 81.3604 132.031C82.0193 132.251 96.5087 141.032 98.2651 143.008C99.4968 144.394 109.689 149.881 115.668 153.037C122.101 147.856 125.935 141.343 125.935 134.268C125.935 117.386 104.118 103.7 77.2063 103.7C50.2943 103.7 28.4778 117.386 28.4778 134.268C28.4778 151.15 50.2943 164.836 77.2063 164.836C79.0045 164.836 80.7794 164.773 82.5273 164.654C82.5654 162.903 82.5834 160.54 82.458 159.034Z" fill="#D6D6D6" stroke="#263238" stroke-miterlimit="10" stroke-linecap="round" stroke-linejoin="round"/>
<path opacity="0.29" d="M82.4793 161.292C82.2469 158.502 80.9234 131.633 81.6212 131.865C82.3186 132.098 97.6657 141.399 99.5259 143.492C100.555 144.65 107.494 148.513 113.487 151.734C115.928 149.624 119.061 146.504 119.859 145.307C121.017 143.57 123.623 137.199 123.623 135.172C123.623 133.145 121.886 125.617 117.832 120.984C113.778 116.351 107.408 114.904 101.327 111.719C95.2467 108.533 92.6408 106.796 88.8766 106.796C85.1123 106.796 78.4527 106.217 71.2138 105.928C63.9748 105.638 53.8404 108.244 53.8404 108.244C53.8404 108.244 50.6551 110.561 43.9955 114.614C37.3359 118.668 33.2818 118.668 32.9923 123.59C32.7029 128.513 31.2552 129.961 30.3864 133.725C29.5176 137.489 33.8611 147.913 36.7565 151.388C39.652 154.862 50.3657 160.364 54.9983 160.653C59.6313 160.943 71.2133 162.68 72.3716 162.97C73.5299 163.259 79.6106 164.128 81.3477 163.549C81.6519 163.448 81.6897 163.397 82.3809 163.192C82.3723 162.231 82.5404 162.022 82.4793 161.292Z" fill="black"/>
<path d="M82.458 159.034C82.2386 156.4 80.7015 131.811 81.3604 132.031C82.0193 132.251 96.5087 141.032 98.2651 143.008C99.2368 144.101 105.788 147.749 111.447 150.789C113.751 148.797 116.709 145.852 117.463 144.722C118.556 143.081 121.016 137.067 121.016 135.154C121.016 133.24 119.376 126.132 115.549 121.758C111.721 117.384 105.707 116.017 99.9662 113.01C94.2254 110.003 91.765 108.363 88.2111 108.363C84.6572 108.363 78.3695 107.816 71.5352 107.543C64.7009 107.269 55.1323 109.729 55.1323 109.729C55.1323 109.729 52.125 111.916 45.8376 115.744C39.5498 119.571 35.7225 119.571 35.4494 124.218C35.176 128.866 33.809 130.233 32.989 133.787C32.169 137.34 36.2694 147.182 39.0033 150.463C41.7372 153.743 51.8523 158.937 56.2262 159.211C60.6001 159.484 71.5352 161.124 72.6291 161.398C73.7225 161.671 79.4633 162.491 81.1038 161.945C81.3912 161.849 81.8996 161.693 82.5523 161.499C82.5424 160.592 82.5154 159.723 82.458 159.034Z" fill="white" stroke="#263238" stroke-miterlimit="10" stroke-linecap="round" stroke-linejoin="round"/>
<path d="M74.8151 118.477C77.6839 118.477 80.0094 117.131 80.0094 115.47C80.0094 113.81 77.6839 112.463 74.8151 112.463C71.9464 112.463 69.6208 113.81 69.6208 115.47C69.6208 117.131 71.9464 118.477 74.8151 118.477Z" fill="#92E3A9" stroke="#263238" stroke-miterlimit="10" stroke-linecap="round" stroke-linejoin="round"/>
<path d="M48.5711 126.678C51.4398 126.678 53.7654 125.332 53.7654 123.671C53.7654 122.011 51.4398 120.665 48.5711 120.665C45.7024 120.665 43.3768 122.011 43.3768 123.671C43.3768 125.332 45.7024 126.678 48.5711 126.678Z" fill="#92E3A9" stroke="#263238" stroke-miterlimit="10" stroke-linecap="round" stroke-linejoin="round"/>
<path d="M63.8419 138.883C63.8419 140.188 62.0146 141.246 59.7604 141.246C57.5062 141.246 55.6788 140.188 55.6788 138.883C55.6788 137.578 57.5062 136.521 59.7604 136.521C62.0146 136.521 63.8419 137.578 63.8419 138.883Z" fill="#92E3A9" stroke="#263238" stroke-miterlimit="10" stroke-linecap="round" stroke-linejoin="round"/>
<path d="M104.377 127.99C104.377 129.169 102.726 130.125 100.69 130.125C98.6534 130.125 97.0027 129.169 97.0027 127.99C97.0027 126.811 98.6538 125.855 100.69 125.855C102.726 125.855 104.377 126.811 104.377 127.99Z" fill="#92E3A9" stroke="#263238" stroke-miterlimit="10" stroke-linecap="round" stroke-linejoin="round"/>
<path d="M74.5285 135.925C77.3972 135.925 79.7228 134.578 79.7228 132.917C79.7228 131.257 77.3972 129.91 74.5285 129.91C71.6598 129.91 69.3342 131.257 69.3342 132.917C69.3342 134.578 71.6598 135.925 74.5285 135.925Z" fill="#92E3A9" stroke="#263238" stroke-miterlimit="10" stroke-linecap="round" stroke-linejoin="round"/>
<path d="M93.2595 121.678C96.1282 121.678 98.4538 120.331 98.4538 118.67C98.4538 117.009 96.1282 115.663 93.2595 115.663C90.3908 115.663 88.0652 117.009 88.0652 118.67C88.0652 120.331 90.3908 121.678 93.2595 121.678Z" fill="#92E3A9" stroke="#263238" stroke-miterlimit="10" stroke-linecap="round" stroke-linejoin="round"/>
<path d="M73.2067 155.477C76.0755 155.477 78.401 154.131 78.401 152.47C78.401 150.81 76.0755 149.463 73.2067 149.463C70.338 149.463 68.0125 150.81 68.0125 152.47C68.0125 154.131 70.338 155.477 73.2067 155.477Z" fill="#92E3A9" stroke="#263238" stroke-miterlimit="10" stroke-linecap="round" stroke-linejoin="round"/>
<path d="M44.3062 141.183C47.175 141.183 49.5005 139.837 49.5005 138.176C49.5005 136.515 47.175 135.169 44.3062 135.169C41.4375 135.169 39.1119 136.515 39.1119 138.176C39.1119 139.837 41.4375 141.183 44.3062 141.183Z" fill="#92E3A9" stroke="#263238" stroke-miterlimit="10" stroke-linecap="round" stroke-linejoin="round"/>
<path d="M111.995 137.887C114.864 137.887 117.189 136.541 117.189 134.88C117.189 133.219 114.864 131.873 111.995 131.873C109.126 131.873 106.801 133.219 106.801 134.88C106.801 136.541 109.126 137.887 111.995 137.887Z" fill="#92E3A9" stroke="#263238" stroke-miterlimit="10" stroke-linecap="round" stroke-linejoin="round"/>
<path d="M60.143 118.26C62.5973 118.26 64.587 117.108 64.587 115.687C64.587 114.266 62.5973 113.114 60.143 113.114C57.6886 113.114 55.699 114.266 55.699 115.687C55.699 117.108 57.6886 118.26 60.143 118.26Z" fill="#92E3A9" stroke="#263238" stroke-miterlimit="10" stroke-linecap="round" stroke-linejoin="round"/>
<path d="M86.6289 130.083C85.0131 130.083 83.7474 129.106 83.7474 127.86C83.7474 126.613 85.0131 125.637 86.6289 125.637C88.2447 125.637 89.5104 126.613 89.5104 127.86C89.5108 129.106 88.2451 130.083 86.6289 130.083ZM86.6289 127.009C85.7655 127.009 85.1201 127.458 85.1201 127.86C85.1201 128.261 85.7655 128.71 86.6289 128.71C87.4928 128.71 88.1381 128.261 88.1381 127.86C88.1381 127.458 87.4928 127.009 86.6289 127.009Z" fill="#263238"/>
<path d="M66.4315 123.085C64.8157 123.085 63.55 122.108 63.55 120.862C63.55 119.615 64.8157 118.639 66.4315 118.639C68.0473 118.639 69.3134 119.615 69.3134 120.862C69.3134 122.108 68.0473 123.085 66.4315 123.085ZM66.4315 120.011C65.5681 120.011 64.9227 120.46 64.9227 120.862C64.9227 121.264 65.5681 121.713 66.4315 121.713C67.2954 121.713 67.9407 121.264 67.9407 120.862C67.9407 120.46 67.2954 120.011 66.4315 120.011Z" fill="#263238"/>
<path d="M113.413 146.301C111.797 146.301 110.531 145.324 110.531 144.078C110.531 142.832 111.797 141.855 113.413 141.855C115.029 141.855 116.294 142.832 116.294 144.078C116.295 145.324 115.029 146.301 113.413 146.301ZM113.413 143.227C112.55 143.227 111.904 143.676 111.904 144.078C111.904 144.48 112.55 144.929 113.413 144.929C114.277 144.929 114.922 144.48 114.922 144.078C114.922 143.677 114.277 143.227 113.413 143.227Z" fill="#263238"/>
<path d="M57.1831 150.939C55.5673 150.939 54.3016 149.962 54.3016 148.716C54.3016 147.47 55.5673 146.493 57.1831 146.493C58.7989 146.493 60.065 147.47 60.065 148.716C60.0646 149.962 58.7989 150.939 57.1831 150.939ZM57.1831 147.865C56.3197 147.865 55.6743 148.314 55.6743 148.716C55.6743 149.118 56.3197 149.567 57.1831 149.567C58.047 149.567 58.6923 149.118 58.6923 148.716C58.6923 148.314 58.0466 147.865 57.1831 147.865Z" fill="#263238"/>
<path d="M65.9924 130.055C64.8756 130.055 64.0002 129.38 64.0002 128.518C64.0002 127.656 64.8752 126.981 65.9924 126.981C67.1097 126.981 67.9846 127.656 67.9846 128.518C67.9846 129.38 67.1097 130.055 65.9924 130.055ZM65.9924 127.93C65.3955 127.93 64.9494 128.241 64.9494 128.518C64.9494 128.796 65.3955 129.106 65.9924 129.106C66.5898 129.106 67.0359 128.796 67.0359 128.518C67.0359 128.241 66.5898 127.93 65.9924 127.93Z" fill="#263238"/>
<path d="M50.8441 119.368C49.7273 119.368 48.8519 118.693 48.8519 117.831C48.8519 116.969 49.7269 116.294 50.8441 116.294C51.9614 116.294 52.8363 116.969 52.8363 117.831C52.8363 118.693 51.9614 119.368 50.8441 119.368ZM50.8441 117.243C50.2472 117.243 49.8011 117.554 49.8011 117.831C49.8011 118.109 50.2472 118.419 50.8441 118.419C51.4415 118.419 51.8876 118.109 51.8876 117.831C51.8876 117.554 51.4411 117.243 50.8441 117.243Z" fill="#263238"/>
<path d="M110.12 125.594C109.003 125.594 108.128 124.919 108.128 124.057C108.128 123.195 109.003 122.52 110.12 122.52C111.237 122.52 112.112 123.195 112.112 124.057C112.112 124.919 111.237 125.594 110.12 125.594ZM110.12 123.469C109.523 123.469 109.077 123.779 109.077 124.057C109.077 124.334 109.523 124.645 110.12 124.645C110.717 124.645 111.163 124.334 111.163 124.057C111.163 123.779 110.717 123.469 110.12 123.469Z" fill="#263238"/>
<path d="M101.173 140.056C100.056 140.056 99.1807 139.38 99.1807 138.518C99.1807 137.657 100.056 136.981 101.173 136.981C102.29 136.981 103.165 137.657 103.165 138.518C103.165 139.381 102.29 140.056 101.173 140.056ZM101.173 137.931C100.576 137.931 100.13 138.241 100.13 138.519C100.13 138.796 100.576 139.107 101.173 139.107C101.77 139.107 102.216 138.796 102.216 138.519C102.216 138.241 101.77 137.931 101.173 137.931Z" fill="#263238"/>
<path d="M46.5076 146.521C45.3907 146.521 44.5154 145.846 44.5154 144.984C44.5154 144.122 45.3903 143.447 46.5076 143.447C47.6248 143.447 48.4998 144.122 48.4998 144.984C48.4998 145.846 47.6248 146.521 46.5076 146.521ZM46.5076 144.396C45.9106 144.396 45.4645 144.706 45.4645 144.984C45.4645 145.261 45.9106 145.572 46.5076 145.572C47.1049 145.572 47.551 145.261 47.551 144.984C47.551 144.706 47.1049 144.396 46.5076 144.396Z" fill="#263238"/>
<path d="M72.1395 144.616C71.0227 144.616 70.1473 143.94 70.1473 143.078C70.1473 142.217 71.0223 141.542 72.1395 141.542C73.2568 141.542 74.1317 142.217 74.1317 143.078C74.1317 143.94 73.2568 144.616 72.1395 144.616ZM72.1395 142.491C71.5426 142.491 71.0965 142.801 71.0965 143.078C71.0965 143.356 71.5426 143.666 72.1395 143.666C72.7365 143.666 73.183 143.356 73.183 143.078C73.183 142.801 72.7365 142.491 72.1395 142.491Z" fill="#263238"/>
<path d="M85.8052 116.224C84.6883 116.224 83.813 115.549 83.813 114.687C83.813 113.825 84.6879 113.15 85.8052 113.15C86.9224 113.15 87.7974 113.825 87.7974 114.687C87.7974 115.549 86.9224 116.224 85.8052 116.224ZM85.8052 114.099C85.2082 114.099 84.7621 114.41 84.7621 114.687C84.7621 114.965 85.2082 115.275 85.8052 115.275C86.4021 115.275 86.8486 114.965 86.8486 114.687C86.8486 114.41 86.4026 114.099 85.8052 114.099Z" fill="#263238"/>
<path d="M39.8126 130.275C38.6958 130.275 37.8204 129.599 37.8204 128.737C37.8204 127.876 38.6954 127.2 39.8126 127.2C40.9299 127.2 41.8048 127.876 41.8048 128.737C41.8048 129.599 40.9295 130.275 39.8126 130.275ZM39.8126 128.15C39.2157 128.15 38.7696 128.46 38.7696 128.737C38.7696 129.015 39.2157 129.325 39.8126 129.325C40.41 129.325 40.8561 129.015 40.8561 128.737C40.8557 128.46 40.4096 128.15 39.8126 128.15Z" fill="#263238"/>
<path d="M148.582 120.81C148.582 120.81 126.285 136.997 125.729 137.739C125.173 138.481 76.6085 168.298 76.7942 169.04C76.9795 169.782 75.1247 188.332 75.8668 188.518C76.6089 188.703 147.655 139.731 147.655 139.731L148.582 120.81Z" fill="#92E3A9" stroke="#263238" stroke-miterlimit="10" stroke-linecap="round" stroke-linejoin="round"/>
<path opacity="0.33" d="M147.934 121.807L125.716 138.457L77.2891 169.394L76.3436 187.882L147.251 139.35L147.934 121.807Z" fill="black"/>
<path d="M76.7943 169.04L2.84256 119.898C2.84256 119.898 2.47684 119.306 2.44732 121.558C2.39853 125.257 2.78516 132.738 3.70766 134.352C5.19145 136.949 75.8668 188.518 75.8668 188.518L76.7943 169.04Z" fill="#92E3A9" stroke="#263238" stroke-miterlimit="10" stroke-linecap="round" stroke-linejoin="round"/>
<path d="M178.811 156.87C185.92 156.87 191.683 153.554 191.683 149.464C191.683 145.374 185.92 142.058 178.811 142.058C171.702 142.058 165.938 145.374 165.938 149.464C165.938 153.554 171.702 156.87 178.811 156.87Z" fill="#263238" stroke="#263238" stroke-miterlimit="10" stroke-linecap="round" stroke-linejoin="round"/>
<path d="M165.926 111.909C165.926 111.909 163.803 116.003 163.5 117.595C163.196 119.187 163.652 148.225 164.334 149.59C165.016 150.955 167.587 154.983 176.844 155.124C186.776 155.276 188.671 148.832 188.899 147.543C189.126 146.254 189.96 118.05 189.354 116.609C188.747 115.169 186.7 111.984 186.7 111.984L165.926 111.909Z" fill="#92E3A9" stroke="#263238" stroke-miterlimit="10" stroke-linecap="round" stroke-linejoin="round"/>
<path opacity="0.4" d="M165.926 111.909C165.926 111.909 163.803 116.003 163.5 117.595C163.196 119.187 163.652 148.225 164.334 149.59C165.016 150.955 167.587 154.983 176.844 155.124C186.776 155.276 188.671 148.832 188.899 147.543C189.126 146.254 189.96 118.05 189.354 116.609C188.747 115.169 186.7 111.984 186.7 111.984L165.926 111.909Z" fill="black" stroke="#263238" stroke-miterlimit="10" stroke-linecap="round" stroke-linejoin="round"/>
<path d="M176.292 116.255C182.436 116.255 187.416 113.914 187.416 111.025C187.416 108.136 182.436 105.795 176.292 105.795C170.148 105.795 165.168 108.136 165.168 111.025C165.168 113.914 170.148 116.255 176.292 116.255Z" fill="white" stroke="#263238" stroke-miterlimit="10" stroke-linecap="round" stroke-linejoin="round"/>
<path d="M176.292 115.794C181.894 115.794 186.435 113.659 186.435 111.025C186.435 108.391 181.894 106.256 176.292 106.256C170.69 106.256 166.148 108.391 166.148 111.025C166.148 113.659 170.69 115.794 176.292 115.794Z" fill="#ADADAD" stroke="#263238" stroke-miterlimit="10" stroke-linecap="round" stroke-linejoin="round"/>
<path d="M176.292 115.795C181.599 115.795 185.902 114.001 185.902 111.789C185.902 109.576 181.599 107.782 176.292 107.782C170.984 107.782 166.682 109.576 166.682 111.789C166.682 114.001 170.984 115.795 176.292 115.795Z" fill="white" stroke="#263238" stroke-miterlimit="10" stroke-linecap="round" stroke-linejoin="round"/>
<path d="M176.037 112.342C176.037 112.342 174.598 112.822 174.94 113.301C175.283 113.781 176.791 114.672 179.463 114.192C182.136 113.713 183.232 112.616 182.89 112C182.547 111.383 180.834 111.109 179.943 111.246C179.052 111.383 176.037 112.342 176.037 112.342Z" fill="#263238" stroke="#263238" stroke-miterlimit="10" stroke-linecap="round" stroke-linejoin="round"/>
<path d="M175.939 107.962C175.939 107.962 174.993 106.88 173.595 106.88C172.198 106.88 169.764 108.051 169.674 108.547C169.583 109.043 174.316 112.469 174.677 112.649C175.037 112.829 176.345 113.46 177.787 113.145C179.23 112.829 179.906 112.243 179.942 111.245C179.979 110.247 175.939 107.962 175.939 107.962ZM172.424 109.494C171.612 109.404 170.305 108.863 171.207 108.187C172.108 107.511 174.001 107.421 174.001 107.421C174.317 107.421 175.038 107.871 174.813 108.548C174.587 109.224 173.235 109.584 172.424 109.494ZM177.111 112.74C175.398 112.83 173.505 111.027 173.505 110.576C173.505 110.126 175.714 109.449 175.714 109.449C176.39 109.044 178.013 109.9 178.509 110.576C179.004 111.252 178.824 112.65 177.111 112.74Z" fill="white" stroke="#263238" stroke-miterlimit="10" stroke-linecap="round" stroke-linejoin="round"/>
<path d="M177.02 123.524C177.708 123.47 178.432 123.391 179.194 123.281" stroke="#263238" stroke-miterlimit="10" stroke-linecap="round" stroke-linejoin="round"/>
<path d="M164.94 120.173C164.94 120.173 167.346 123.724 175.243 123.608" stroke="#263238" stroke-miterlimit="10" stroke-linecap="round" stroke-linejoin="round"/>
<path d="M189.543 119.221C188.482 121.548 186.46 124.662 182.73 128.735C176.842 135.166 169.395 141.682 163.972 146.179C164.082 148.065 164.203 149.33 164.333 149.59C164.893 150.709 166.726 153.618 172.471 154.707C174.284 149.416 177.899 142.485 185.086 136.912C186.686 135.671 188.117 134.562 189.406 133.562C189.534 128.127 189.614 122.448 189.543 119.221Z" fill="#92E3A9" stroke="#263238" stroke-miterlimit="10" stroke-linecap="round" stroke-linejoin="round"/>
<path d="M162.553 156.714C162.553 156.714 148.403 154.561 142.251 154.868C136.099 155.176 133.33 157.329 133.022 158.56C132.715 159.79 132.407 161.636 132.407 162.866C132.407 164.097 127.178 168.711 123.179 173.325C119.18 177.939 110.315 188.813 111.853 190.658C113.391 192.504 134.56 186.552 140.404 185.629C146.249 184.706 166.551 180.4 168.396 180.092C170.242 179.785 173.011 179.169 173.011 179.169C173.011 179.169 173.011 181.938 176.087 179.169C179.163 176.401 181.624 172.402 178.24 167.48C174.857 162.559 166.551 157.022 162.553 156.714Z" fill="#263238" stroke="#263238" stroke-miterlimit="10" stroke-linecap="round" stroke-linejoin="round"/>
<path d="M162.553 155.491C162.553 155.491 148.403 153.338 142.251 153.645C136.099 153.953 133.33 156.106 133.022 157.336C132.715 158.567 132.407 160.413 132.407 161.643C132.407 162.873 127.178 167.487 123.179 172.102C119.18 176.716 110.315 187.589 111.853 189.435C113.391 191.28 134.56 185.329 140.404 184.406C146.249 183.483 166.551 179.177 168.396 178.869C170.242 178.562 173.011 177.946 173.011 177.946C173.011 177.946 173.011 180.714 176.087 177.946C179.163 175.178 181.624 171.179 178.24 166.257C174.857 161.335 166.551 155.798 162.553 155.491Z" fill="white" stroke="#263238" stroke-miterlimit="10" stroke-linecap="round" stroke-linejoin="round"/>
<path d="M178.24 166.257C174.857 161.335 166.551 155.798 162.553 155.491C162.553 155.491 148.403 153.338 142.251 153.645C136.099 153.953 133.33 156.106 133.022 157.337C132.715 158.567 132.407 160.413 132.407 161.643C132.407 161.643 138.329 158.575 145.662 159.048C152.995 159.521 152.995 159.757 155.597 159.757C158.199 159.757 160.565 160.704 164.586 162.359C168.607 164.015 170.027 164.488 170.973 165.907C171.919 167.327 173.102 167.563 173.575 170.165C174.048 172.767 173.011 177.946 173.011 177.946C173.011 177.946 173.011 180.715 176.087 177.946C179.163 175.177 181.624 171.179 178.24 166.257Z" fill="#D6D6D6" stroke="#263238" stroke-miterlimit="10" stroke-linecap="round" stroke-linejoin="round"/>
<path opacity="0.29" d="M174.507 176.91C174.507 176.91 175.582 171.446 175.092 168.701C174.601 165.956 173.375 165.706 172.394 164.209C171.414 162.712 169.942 162.213 165.774 160.466C161.605 158.719 159.153 157.721 156.456 157.721C153.758 157.721 153.758 157.471 146.157 156.972C139.281 156.521 133.604 159.126 132.581 159.627C132.477 160.35 132.408 161.064 132.408 161.643C132.408 161.643 138.33 158.575 145.663 159.047C152.996 159.52 152.996 159.757 155.598 159.757C158.2 159.757 160.565 160.703 164.587 162.359C168.608 164.015 170.027 164.488 170.974 165.907C171.92 167.326 173.103 167.563 173.576 170.165C174.049 172.767 173.012 177.946 173.012 177.946C173.012 177.946 173.013 180.578 175.87 178.136C174.507 178.565 174.507 176.91 174.507 176.91Z" fill="black"/>
<path d="M160.419 171.171C163.552 171.171 166.091 169.56 166.091 167.574C166.091 165.587 163.552 163.976 160.419 163.976C157.286 163.976 154.746 165.587 154.746 167.574C154.746 169.56 157.286 171.171 160.419 171.171Z" fill="#92E3A9" stroke="#263238" stroke-miterlimit="10" stroke-linecap="round" stroke-linejoin="round"/>
<path d="M138.696 180.303C141.447 180.303 143.677 178.878 143.677 177.121C143.677 175.363 141.447 173.938 138.696 173.938C135.945 173.938 133.715 175.363 133.715 177.121C133.715 178.878 135.945 180.303 138.696 180.303Z" fill="#92E3A9" stroke="#263238" stroke-miterlimit="10" stroke-linecap="round" stroke-linejoin="round"/>
<path d="M143.4 170.064C145.846 170.064 147.828 168.639 147.828 166.882C147.828 165.124 145.846 163.699 143.4 163.699C140.955 163.699 138.973 165.124 138.973 166.882C138.973 168.639 140.955 170.064 143.4 170.064Z" fill="#92E3A9" stroke="#263238" stroke-miterlimit="10" stroke-linecap="round" stroke-linejoin="round"/>
<path d="M124.722 180.58C126.632 180.58 128.181 179.65 128.181 178.504C128.181 177.358 126.632 176.429 124.722 176.429C122.811 176.429 121.262 177.358 121.262 178.504C121.262 179.65 122.811 180.58 124.722 180.58Z" fill="#92E3A9" stroke="#263238" stroke-miterlimit="10" stroke-linecap="round" stroke-linejoin="round"/>
<path d="M153.575 174.645C152.458 174.645 151.583 173.97 151.583 173.108C151.583 172.246 152.458 171.571 153.575 171.571C154.693 171.571 155.568 172.247 155.568 173.108C155.568 173.97 154.693 174.645 153.575 174.645ZM153.575 172.52C152.978 172.52 152.532 172.831 152.532 173.108C152.532 173.386 152.978 173.696 153.575 173.696C154.172 173.696 154.619 173.386 154.619 173.108C154.619 172.831 154.172 172.52 153.575 172.52Z" fill="#263238"/>
<path d="M119.326 186.025C118.209 186.025 117.333 185.35 117.333 184.488C117.333 183.626 118.208 182.951 119.326 182.951C120.443 182.951 121.318 183.626 121.318 184.488C121.318 185.35 120.442 186.025 119.326 186.025ZM119.326 183.901C118.729 183.901 118.283 184.211 118.283 184.489C118.283 184.766 118.729 185.076 119.326 185.076C119.923 185.076 120.369 184.766 120.369 184.489C120.369 184.211 119.923 183.901 119.326 183.901Z" fill="#263238"/>
<path d="M136.759 166.585C135.642 166.585 134.767 165.91 134.767 165.048C134.767 164.187 135.642 163.511 136.759 163.511C137.876 163.511 138.751 164.187 138.751 165.048C138.751 165.91 137.876 166.585 136.759 166.585ZM136.759 164.46C136.162 164.46 135.716 164.771 135.716 165.048C135.716 165.326 136.162 165.636 136.759 165.636C137.356 165.636 137.802 165.326 137.802 165.048C137.802 164.771 137.356 164.46 136.759 164.46Z" fill="#263238"/>
<path d="M168.582 174.61C167.465 174.61 166.59 173.935 166.59 173.073C166.59 172.212 167.465 171.536 168.582 171.536C169.699 171.536 170.574 172.212 170.574 173.073C170.574 173.935 169.699 174.61 168.582 174.61ZM168.582 172.485C167.985 172.485 167.539 172.796 167.539 173.073C167.539 173.351 167.985 173.661 168.582 173.661C169.179 173.661 169.626 173.351 169.626 173.073C169.625 172.796 169.179 172.485 168.582 172.485Z" fill="#263238"/>
<path d="M151.217 164.972C149.751 164.972 148.603 164.165 148.603 163.135C148.603 162.105 149.751 161.298 151.217 161.298C152.684 161.298 153.832 162.105 153.832 163.135C153.832 164.165 152.684 164.972 151.217 164.972ZM151.217 162.432C150.434 162.432 149.848 162.803 149.848 163.135C149.848 163.467 150.434 163.838 151.217 163.838C152.001 163.838 152.587 163.467 152.587 163.135C152.587 162.803 152.001 162.432 151.217 162.432Z" fill="#263238"/>
<path d="M131.225 183.651C129.758 183.651 128.61 182.844 128.61 181.814C128.61 180.784 129.758 179.977 131.225 179.977C132.691 179.977 133.839 180.783 133.839 181.814C133.839 182.844 132.691 183.651 131.225 183.651ZM131.225 181.111C130.441 181.111 129.856 181.482 129.856 181.814C129.856 182.146 130.441 182.517 131.225 182.517C132.008 182.517 132.594 182.146 132.594 181.814C132.594 181.482 132.008 181.111 131.225 181.111Z" fill="#263238"/>
<path d="M128.457 174.887C127.34 174.887 126.465 174.212 126.465 173.35C126.465 172.488 127.34 171.813 128.457 171.813C129.574 171.813 130.449 172.488 130.449 173.35C130.449 174.212 129.574 174.887 128.457 174.887ZM128.457 172.762C127.86 172.762 127.414 173.073 127.414 173.35C127.414 173.628 127.86 173.938 128.457 173.938C129.054 173.938 129.501 173.628 129.501 173.35C129.501 173.073 129.054 172.762 128.457 172.762Z" fill="#263238"/>
</svg>
