<svg width="21" height="24" viewBox="0 0 21 24" fill="none" xmlns="http://www.w3.org/2000/svg">
<path d="M15.2727 12.0093C15.2727 12.2352 15.1722 12.4519 14.9931 12.6116C14.8141 12.7714 14.5713 12.8611 14.3182 12.8611H6.68182C6.42866 12.8611 6.18586 12.7714 6.00685 12.6116C5.82784 12.4519 5.72727 12.2352 5.72727 12.0093C5.72727 11.7833 5.82784 11.5667 6.00685 11.4069C6.18586 11.2472 6.42866 11.1574 6.68182 11.1574H14.3182C14.5713 11.1574 14.8141 11.2472 14.9931 11.4069C15.1722 11.5667 15.2727 11.7833 15.2727 12.0093ZM14.3182 14.5648H6.68182C6.42866 14.5648 6.18586 14.6546 6.00685 14.8143C5.82784 14.9741 5.72727 15.1908 5.72727 15.4167C5.72727 15.6426 5.82784 15.8593 6.00685 16.019C6.18586 16.1788 6.42866 16.2685 6.68182 16.2685H14.3182C14.5713 16.2685 14.8141 16.1788 14.9931 16.019C15.1722 15.8593 15.2727 15.6426 15.2727 15.4167C15.2727 15.1908 15.1722 14.9741 14.9931 14.8143C14.8141 14.6546 14.5713 14.5648 14.3182 14.5648ZM21 3.49075V19.6759C21 20.5796 20.5977 21.4463 19.8817 22.0853C19.1656 22.7243 18.1945 23.0833 17.1818 23.0833H3.81818C2.80554 23.0833 1.83437 22.7243 1.11832 22.0853C0.402271 21.4463 0 20.5796 0 19.6759V3.49075C0 3.0389 0.201136 2.60556 0.55916 2.28605C0.917184 1.96654 1.40277 1.78705 1.90909 1.78705H3.81818V0.935195C3.81818 0.70927 3.91875 0.492598 4.09776 0.332845C4.27677 0.173092 4.51957 0.0833435 4.77273 0.0833435C5.02589 0.0833435 5.26868 0.173092 5.44769 0.332845C5.6267 0.492598 5.72727 0.70927 5.72727 0.935195V1.78705H9.54545V0.935195C9.54545 0.70927 9.64602 0.492598 9.82503 0.332845C10.004 0.173092 10.2468 0.0833435 10.5 0.0833435C10.7532 0.0833435 10.996 0.173092 11.175 0.332845C11.354 0.492598 11.4545 0.70927 11.4545 0.935195V1.78705H15.2727V0.935195C15.2727 0.70927 15.3733 0.492598 15.5523 0.332845C15.7313 0.173092 15.9741 0.0833435 16.2273 0.0833435C16.4804 0.0833435 16.7232 0.173092 16.9022 0.332845C17.0813 0.492598 17.1818 0.70927 17.1818 0.935195V1.78705H19.0909C19.5972 1.78705 20.0828 1.96654 20.4408 2.28605C20.7989 2.60556 21 3.0389 21 3.49075ZM19.0909 3.49075H17.1818V4.3426C17.1818 4.56853 17.0813 4.7852 16.9022 4.94495C16.7232 5.10471 16.4804 5.19445 16.2273 5.19445C15.9741 5.19445 15.7313 5.10471 15.5523 4.94495C15.3733 4.7852 15.2727 4.56853 15.2727 4.3426V3.49075H11.4545V4.3426C11.4545 4.56853 11.354 4.7852 11.175 4.94495C10.996 5.10471 10.7532 5.19445 10.5 5.19445C10.2468 5.19445 10.004 5.10471 9.82503 4.94495C9.64602 4.7852 9.54545 4.56853 9.54545 4.3426V3.49075H5.72727V4.3426C5.72727 4.56853 5.6267 4.7852 5.44769 4.94495C5.26868 5.10471 5.02589 5.19445 4.77273 5.19445C4.51957 5.19445 4.27677 5.10471 4.09776 4.94495C3.91875 4.7852 3.81818 4.56853 3.81818 4.3426V3.49075H1.90909V19.6759C1.90909 20.1278 2.11023 20.5611 2.46825 20.8806C2.82627 21.2001 3.31186 21.3796 3.81818 21.3796H17.1818C17.6881 21.3796 18.1737 21.2001 18.5317 20.8806C18.8898 20.5611 19.0909 20.1278 19.0909 19.6759V3.49075Z" fill="#FAFAFA"/>
</svg>
